solid Table_v2
   facet normal 4.026643e-02 -7.629044e-16 9.991890e-01
      outer loop
         vertex 1.206999e-01 1.000000e-02 1.495136e+00
         vertex 5.510911e-16 1.000000e-02 1.500000e+00
         vertex 1.836970e-16 -1.000000e-02 1.500000e+00
      endloop
   endfacet
   facet normal -4.026643e-02 7.396823e-16 9.991890e-01
      outer loop
         vertex 1.836970e-16 -1.000000e-02 1.500000e+00
         vertex 5.510911e-16 1.000000e-02 1.500000e+00
         vertex -1.206999e-01 -1.000000e-02 1.495136e+00
      endloop
   endfacet
   facet normal -4.026643e-02 0.000000e+00 9.991890e-01
      outer loop
         vertex 5.510911e-16 1.000000e-02 1.500000e+00
         vertex -1.206999e-01 1.000000e-02 1.495136e+00
         vertex -1.206999e-01 -1.000000e-02 1.495136e+00
      endloop
   endfacet
   facet normal -1.604113e-01 0.000000e+00 9.870503e-01
      outer loop
         vertex -1.206999e-01 -1.000000e-02 1.495136e+00
         vertex -1.206999e-01 1.000000e-02 1.495136e+00
         vertex -3.589735e-01 1.000000e-02 1.456413e+00
      endloop
   endfacet
   facet normal -1.604113e-01 0.000000e+00 9.870503e-01
      outer loop
         vertex -1.206999e-01 -1.000000e-02 1.495136e+00
         vertex -3.589735e-01 1.000000e-02 1.456413e+00
         vertex -3.589735e-01 -1.000000e-02 1.456413e+00
      endloop
   endfacet
   facet normal -3.166680e-01 0.000000e+00 9.485365e-01
      outer loop
         vertex -3.589735e-01 -1.000000e-02 1.456413e+00
         vertex -3.589735e-01 1.000000e-02 1.456413e+00
         vertex -5.879499e-01 1.000000e-02 1.379969e+00
      endloop
   endfacet
   facet normal -3.166680e-01 0.000000e+00 9.485365e-01
      outer loop
         vertex -3.589735e-01 -1.000000e-02 1.456413e+00
         vertex -5.879499e-01 1.000000e-02 1.379969e+00
         vertex -5.879499e-01 -1.000000e-02 1.379969e+00
      endloop
   endfacet
   facet normal -4.647232e-01 0.000000e+00 8.854560e-01
      outer loop
         vertex -5.879499e-01 -1.000000e-02 1.379969e+00
         vertex -5.879499e-01 1.000000e-02 1.379969e+00
         vertex -8.016987e-01 1.000000e-02 1.267785e+00
      endloop
   endfacet
   facet normal -4.647232e-01 0.000000e+00 8.854560e-01
      outer loop
         vertex -5.879499e-01 -1.000000e-02 1.379969e+00
         vertex -8.016987e-01 1.000000e-02 1.267785e+00
         vertex -8.016987e-01 -1.000000e-02 1.267785e+00
      endloop
   endfacet
   facet normal -6.007421e-01 0.000000e+00 7.994429e-01
      outer loop
         vertex -8.016987e-01 -1.000000e-02 1.267785e+00
         vertex -8.016987e-01 1.000000e-02 1.267785e+00
         vertex -9.946840e-01 1.000000e-02 1.122766e+00
      endloop
   endfacet
   facet normal -6.007421e-01 0.000000e+00 7.994429e-01
      outer loop
         vertex -8.016987e-01 -1.000000e-02 1.267785e+00
         vertex -9.946840e-01 1.000000e-02 1.122766e+00
         vertex -9.946840e-01 -1.000000e-02 1.122766e+00
      endloop
   endfacet
   facet normal -7.212025e-01 0.000000e+00 6.927243e-01
      outer loop
         vertex -9.946840e-01 -1.000000e-02 1.122766e+00
         vertex -9.946840e-01 1.000000e-02 1.122766e+00
         vertex -1.161907e+00 1.000000e-02 9.486681e-01
      endloop
   endfacet
   facet normal -7.212025e-01 0.000000e+00 6.927243e-01
      outer loop
         vertex -9.946840e-01 -1.000000e-02 1.122766e+00
         vertex -1.161907e+00 1.000000e-02 9.486681e-01
         vertex -1.161907e+00 -1.000000e-02 9.486681e-01
      endloop
   endfacet
   facet normal -8.229840e-01 0.000000e+00 5.680646e-01
      outer loop
         vertex -1.161907e+00 -1.000000e-02 9.486681e-01
         vertex -1.161907e+00 1.000000e-02 9.486681e-01
         vertex -1.299038e+00 1.000000e-02 7.500000e-01
      endloop
   endfacet
   facet normal -8.229840e-01 0.000000e+00 5.680646e-01
      outer loop
         vertex -1.161907e+00 -1.000000e-02 9.486681e-01
         vertex -1.299038e+00 1.000000e-02 7.500000e-01
         vertex -1.299038e+00 -1.000000e-02 7.500000e-01
      endloop
   endfacet
   facet normal -9.034504e-01 0.000000e+00 4.286927e-01
      outer loop
         vertex -1.299038e+00 -1.000000e-02 7.500000e-01
         vertex -1.299038e+00 1.000000e-02 7.500000e-01
         vertex -1.402524e+00 1.000000e-02 5.319073e-01
      endloop
   endfacet
   facet normal -9.034504e-01 0.000000e+00 4.286927e-01
      outer loop
         vertex -1.299038e+00 -1.000000e-02 7.500000e-01
         vertex -1.402524e+00 1.000000e-02 5.319073e-01
         vertex -1.402524e+00 -1.000000e-02 5.319073e-01
      endloop
   endfacet
   facet normal -9.605180e-01 0.000000e+00 2.782177e-01
      outer loop
         vertex -1.402524e+00 -1.000000e-02 5.319073e-01
         vertex -1.402524e+00 1.000000e-02 5.319073e-01
         vertex -1.469686e+00 1.000000e-02 3.000385e-01
      endloop
   endfacet
   facet normal -9.605180e-01 0.000000e+00 2.782177e-01
      outer loop
         vertex -1.402524e+00 -1.000000e-02 5.319073e-01
         vertex -1.469686e+00 1.000000e-02 3.000385e-01
         vertex -1.469686e+00 -1.000000e-02 3.000385e-01
      endloop
   endfacet
   facet normal -9.927089e-01 0.000000e+00 1.205363e-01
      outer loop
         vertex -1.469686e+00 -1.000000e-02 3.000385e-01
         vertex -1.469686e+00 1.000000e-02 3.000385e-01
         vertex -1.498783e+00 1.000000e-02 6.039891e-02
      endloop
   endfacet
   facet normal -9.927089e-01 0.000000e+00 1.205363e-01
      outer loop
         vertex -1.469686e+00 -1.000000e-02 3.000385e-01
         vertex -1.498783e+00 1.000000e-02 6.039891e-02
         vertex -1.498783e+00 -1.000000e-02 6.039891e-02
      endloop
   endfacet
   facet normal -9.991890e-01 0.000000e+00 -4.026602e-02
      outer loop
         vertex -1.498783e+00 -1.000000e-02 6.039891e-02
         vertex -1.498783e+00 1.000000e-02 6.039891e-02
         vertex -1.489063e+00 1.000000e-02 -1.808050e-01
      endloop
   endfacet
   facet normal -9.991890e-01 0.000000e+00 -4.026602e-02
      outer loop
         vertex -1.498783e+00 -1.000000e-02 6.039891e-02
         vertex -1.489063e+00 1.000000e-02 -1.808050e-01
         vertex -1.489063e+00 -1.000000e-02 -1.808050e-01
      endloop
   endfacet
   facet normal -9.797907e-01 0.000000e+00 -2.000255e-01
      outer loop
         vertex -1.489063e+00 -1.000000e-02 -1.808050e-01
         vertex -1.489063e+00 1.000000e-02 -1.808050e-01
         vertex -1.440777e+00 1.000000e-02 -4.173262e-01
      endloop
   endfacet
   facet normal -9.797907e-01 0.000000e+00 -2.000255e-01
      outer loop
         vertex -1.489063e+00 -1.000000e-02 -1.808050e-01
         vertex -1.440777e+00 1.000000e-02 -4.173262e-01
         vertex -1.440777e+00 -1.000000e-02 -4.173262e-01
      endloop
   endfacet
   facet normal -9.350162e-01 0.000000e+00 -3.546050e-01
      outer loop
         vertex -1.440777e+00 -1.000000e-02 -4.173262e-01
         vertex -1.440777e+00 1.000000e-02 -4.173262e-01
         vertex -1.355176e+00 1.000000e-02 -6.430389e-01
      endloop
   endfacet
   facet normal -9.350162e-01 0.000000e+00 -3.546050e-01
      outer loop
         vertex -1.440777e+00 -1.000000e-02 -4.173262e-01
         vertex -1.355176e+00 1.000000e-02 -6.430389e-01
         vertex -1.355176e+00 -1.000000e-02 -6.430389e-01
      endloop
   endfacet
   facet normal -8.660255e-01 0.000000e+00 -4.999998e-01
      outer loop
         vertex -1.355176e+00 -1.000000e-02 -6.430389e-01
         vertex -1.355176e+00 1.000000e-02 -6.430389e-01
         vertex -1.234476e+00 1.000000e-02 -8.520971e-01
      endloop
   endfacet
   facet normal -8.660255e-01 0.000000e+00 -4.999998e-01
      outer loop
         vertex -1.355176e+00 -1.000000e-02 -6.430389e-01
         vertex -1.234476e+00 1.000000e-02 -8.520971e-01
         vertex -1.234476e+00 -1.000000e-02 -8.520971e-01
      endloop
   endfacet
   facet normal -7.746050e-01 0.000000e+00 -6.324453e-01
      outer loop
         vertex -1.234476e+00 -1.000000e-02 -8.520971e-01
         vertex -1.234476e+00 1.000000e-02 -8.520971e-01
         vertex -1.081804e+00 1.000000e-02 -1.039087e+00
      endloop
   endfacet
   facet normal -7.746050e-01 0.000000e+00 -6.324453e-01
      outer loop
         vertex -1.234476e+00 -1.000000e-02 -8.520971e-01
         vertex -1.081804e+00 1.000000e-02 -1.039087e+00
         vertex -1.081804e+00 -1.000000e-02 -1.039087e+00
      endloop
   endfacet
   facet normal -6.631225e-01 0.000000e+00 -7.485109e-01
      outer loop
         vertex -1.081804e+00 -1.000000e-02 -1.039087e+00
         vertex -1.081804e+00 1.000000e-02 -1.039087e+00
         vertex -9.011134e-01 1.000000e-02 -1.199164e+00
      endloop
   endfacet
   facet normal -6.631225e-01 0.000000e+00 -7.485109e-01
      outer loop
         vertex -1.081804e+00 -1.000000e-02 -1.039087e+00
         vertex -9.011134e-01 1.000000e-02 -1.199164e+00
         vertex -9.011134e-01 -1.000000e-02 -1.199164e+00
      endloop
   endfacet
   facet normal -5.344658e-01 0.000000e+00 -8.451901e-01
      outer loop
         vertex -9.011134e-01 -1.000000e-02 -1.199164e+00
         vertex -9.011134e-01 1.000000e-02 -1.199164e+00
         vertex -6.970848e-01 1.000000e-02 -1.328184e+00
      endloop
   endfacet
   facet normal -5.344658e-01 0.000000e+00 -8.451901e-01
      outer loop
         vertex -9.011134e-01 -1.000000e-02 -1.199164e+00
         vertex -6.970848e-01 1.000000e-02 -1.328184e+00
         vertex -6.970848e-01 -1.000000e-02 -1.328184e+00
      endloop
   endfacet
   facet normal -3.919669e-01 0.000000e+00 -9.199793e-01
      outer loop
         vertex -6.970848e-01 -1.000000e-02 -1.328184e+00
         vertex -6.970848e-01 1.000000e-02 -1.328184e+00
         vertex -4.750020e-01 1.000000e-02 -1.422805e+00
      endloop
   endfacet
   facet normal -3.919669e-01 0.000000e+00 -9.199793e-01
      outer loop
         vertex -6.970848e-01 -1.000000e-02 -1.328184e+00
         vertex -4.750020e-01 1.000000e-02 -1.422805e+00
         vertex -4.750020e-01 -1.000000e-02 -1.422805e+00
      endloop
   endfacet
   facet normal -2.393157e-01 0.000000e+00 -9.709418e-01
      outer loop
         vertex -4.750020e-01 -1.000000e-02 -1.422805e+00
         vertex -4.750020e-01 1.000000e-02 -1.422805e+00
         vertex -2.406169e-01 1.000000e-02 -1.480575e+00
      endloop
   endfacet
   facet normal -2.393157e-01 0.000000e+00 -9.709418e-01
      outer loop
         vertex -4.750020e-01 -1.000000e-02 -1.422805e+00
         vertex -2.406169e-01 1.000000e-02 -1.480575e+00
         vertex -2.406169e-01 -1.000000e-02 -1.480575e+00
      endloop
   endfacet
   facet normal -8.046637e-02 0.000000e+00 -9.967573e-01
      outer loop
         vertex -2.406169e-01 -1.000000e-02 -1.480575e+00
         vertex -2.406169e-01 1.000000e-02 -1.480575e+00
         vertex 0.000000e+00 1.000000e-02 -1.500000e+00
      endloop
   endfacet
   facet normal -8.046637e-02 0.000000e+00 -9.967573e-01
      outer loop
         vertex -2.406169e-01 -1.000000e-02 -1.480575e+00
         vertex 0.000000e+00 1.000000e-02 -1.500000e+00
         vertex 0.000000e+00 -1.000000e-02 -1.500000e+00
      endloop
   endfacet
   facet normal 8.046637e-02 0.000000e+00 -9.967573e-01
      outer loop
         vertex 0.000000e+00 -1.000000e-02 -1.500000e+00
         vertex 0.000000e+00 1.000000e-02 -1.500000e+00
         vertex 2.406169e-01 1.000000e-02 -1.480575e+00
      endloop
   endfacet
   facet normal 8.046637e-02 0.000000e+00 -9.967573e-01
      outer loop
         vertex 0.000000e+00 -1.000000e-02 -1.500000e+00
         vertex 2.406169e-01 1.000000e-02 -1.480575e+00
         vertex 2.406169e-01 -1.000000e-02 -1.480575e+00
      endloop
   endfacet
   facet normal 2.393157e-01 0.000000e+00 -9.709418e-01
      outer loop
         vertex 2.406169e-01 -1.000000e-02 -1.480575e+00
         vertex 2.406169e-01 1.000000e-02 -1.480575e+00
         vertex 4.750020e-01 1.000000e-02 -1.422805e+00
      endloop
   endfacet
   facet normal 2.393157e-01 0.000000e+00 -9.709418e-01
      outer loop
         vertex 2.406169e-01 -1.000000e-02 -1.480575e+00
         vertex 4.750020e-01 1.000000e-02 -1.422805e+00
         vertex 4.750020e-01 -1.000000e-02 -1.422805e+00
      endloop
   endfacet
   facet normal 3.919669e-01 0.000000e+00 -9.199793e-01
      outer loop
         vertex 4.750020e-01 -1.000000e-02 -1.422805e+00
         vertex 4.750020e-01 1.000000e-02 -1.422805e+00
         vertex 6.970848e-01 1.000000e-02 -1.328184e+00
      endloop
   endfacet
   facet normal 3.919669e-01 0.000000e+00 -9.199793e-01
      outer loop
         vertex 4.750020e-01 -1.000000e-02 -1.422805e+00
         vertex 6.970848e-01 1.000000e-02 -1.328184e+00
         vertex 6.970848e-01 -1.000000e-02 -1.328184e+00
      endloop
   endfacet
   facet normal 5.344658e-01 0.000000e+00 -8.451901e-01
      outer loop
         vertex 6.970848e-01 -1.000000e-02 -1.328184e+00
         vertex 6.970848e-01 1.000000e-02 -1.328184e+00
         vertex 9.011134e-01 1.000000e-02 -1.199164e+00
      endloop
   endfacet
   facet normal 5.344658e-01 0.000000e+00 -8.451901e-01
      outer loop
         vertex 6.970848e-01 -1.000000e-02 -1.328184e+00
         vertex 9.011134e-01 1.000000e-02 -1.199164e+00
         vertex 9.011134e-01 -1.000000e-02 -1.199164e+00
      endloop
   endfacet
   facet normal 6.631225e-01 0.000000e+00 -7.485109e-01
      outer loop
         vertex 9.011134e-01 -1.000000e-02 -1.199164e+00
         vertex 9.011134e-01 1.000000e-02 -1.199164e+00
         vertex 1.081804e+00 1.000000e-02 -1.039087e+00
      endloop
   endfacet
   facet normal 6.631225e-01 0.000000e+00 -7.485109e-01
      outer loop
         vertex 9.011134e-01 -1.000000e-02 -1.199164e+00
         vertex 1.081804e+00 1.000000e-02 -1.039087e+00
         vertex 1.081804e+00 -1.000000e-02 -1.039087e+00
      endloop
   endfacet
   facet normal 7.746050e-01 0.000000e+00 -6.324453e-01
      outer loop
         vertex 1.081804e+00 -1.000000e-02 -1.039087e+00
         vertex 1.081804e+00 1.000000e-02 -1.039087e+00
         vertex 1.234476e+00 1.000000e-02 -8.520971e-01
      endloop
   endfacet
   facet normal 7.746050e-01 0.000000e+00 -6.324453e-01
      outer loop
         vertex 1.081804e+00 -1.000000e-02 -1.039087e+00
         vertex 1.234476e+00 1.000000e-02 -8.520971e-01
         vertex 1.234476e+00 -1.000000e-02 -8.520971e-01
      endloop
   endfacet
   facet normal 8.660255e-01 0.000000e+00 -4.999998e-01
      outer loop
         vertex 1.234476e+00 -1.000000e-02 -8.520971e-01
         vertex 1.234476e+00 1.000000e-02 -8.520971e-01
         vertex 1.355176e+00 1.000000e-02 -6.430389e-01
      endloop
   endfacet
   facet normal 8.660255e-01 0.000000e+00 -4.999998e-01
      outer loop
         vertex 1.234476e+00 -1.000000e-02 -8.520971e-01
         vertex 1.355176e+00 1.000000e-02 -6.430389e-01
         vertex 1.355176e+00 -1.000000e-02 -6.430389e-01
      endloop
   endfacet
   facet normal 9.350162e-01 0.000000e+00 -3.546050e-01
      outer loop
         vertex 1.355176e+00 -1.000000e-02 -6.430389e-01
         vertex 1.355176e+00 1.000000e-02 -6.430389e-01
         vertex 1.440777e+00 1.000000e-02 -4.173262e-01
      endloop
   endfacet
   facet normal 9.350162e-01 0.000000e+00 -3.546050e-01
      outer loop
         vertex 1.355176e+00 -1.000000e-02 -6.430389e-01
         vertex 1.440777e+00 1.000000e-02 -4.173262e-01
         vertex 1.440777e+00 -1.000000e-02 -4.173262e-01
      endloop
   endfacet
   facet normal 9.797907e-01 0.000000e+00 -2.000255e-01
      outer loop
         vertex 1.440777e+00 -1.000000e-02 -4.173262e-01
         vertex 1.440777e+00 1.000000e-02 -4.173262e-01
         vertex 1.489063e+00 1.000000e-02 -1.808050e-01
      endloop
   endfacet
   facet normal 9.797907e-01 0.000000e+00 -2.000255e-01
      outer loop
         vertex 1.440777e+00 -1.000000e-02 -4.173262e-01
         vertex 1.489063e+00 1.000000e-02 -1.808050e-01
         vertex 1.489063e+00 -1.000000e-02 -1.808050e-01
      endloop
   endfacet
   facet normal 9.991890e-01 0.000000e+00 -4.026602e-02
      outer loop
         vertex 1.489063e+00 -1.000000e-02 -1.808050e-01
         vertex 1.489063e+00 1.000000e-02 -1.808050e-01
         vertex 1.498783e+00 1.000000e-02 6.039891e-02
      endloop
   endfacet
   facet normal 9.991890e-01 0.000000e+00 -4.026602e-02
      outer loop
         vertex 1.489063e+00 -1.000000e-02 -1.808050e-01
         vertex 1.498783e+00 1.000000e-02 6.039891e-02
         vertex 1.498783e+00 -1.000000e-02 6.039891e-02
      endloop
   endfacet
   facet normal 9.927089e-01 -0.000000e+00 1.205363e-01
      outer loop
         vertex 1.498783e+00 -1.000000e-02 6.039891e-02
         vertex 1.498783e+00 1.000000e-02 6.039891e-02
         vertex 1.469686e+00 1.000000e-02 3.000385e-01
      endloop
   endfacet
   facet normal 9.927089e-01 0.000000e+00 1.205363e-01
      outer loop
         vertex 1.498783e+00 -1.000000e-02 6.039891e-02
         vertex 1.469686e+00 1.000000e-02 3.000385e-01
         vertex 1.469686e+00 -1.000000e-02 3.000385e-01
      endloop
   endfacet
   facet normal 9.605180e-01 -0.000000e+00 2.782177e-01
      outer loop
         vertex 1.469686e+00 -1.000000e-02 3.000385e-01
         vertex 1.469686e+00 1.000000e-02 3.000385e-01
         vertex 1.402524e+00 1.000000e-02 5.319073e-01
      endloop
   endfacet
   facet normal 9.605180e-01 0.000000e+00 2.782177e-01
      outer loop
         vertex 1.469686e+00 -1.000000e-02 3.000385e-01
         vertex 1.402524e+00 1.000000e-02 5.319073e-01
         vertex 1.402524e+00 -1.000000e-02 5.319073e-01
      endloop
   endfacet
   facet normal 9.034504e-01 -0.000000e+00 4.286927e-01
      outer loop
         vertex 1.402524e+00 -1.000000e-02 5.319073e-01
         vertex 1.402524e+00 1.000000e-02 5.319073e-01
         vertex 1.299038e+00 1.000000e-02 7.500000e-01
      endloop
   endfacet
   facet normal 9.034504e-01 0.000000e+00 4.286927e-01
      outer loop
         vertex 1.402524e+00 -1.000000e-02 5.319073e-01
         vertex 1.299038e+00 1.000000e-02 7.500000e-01
         vertex 1.299038e+00 -1.000000e-02 7.500000e-01
      endloop
   endfacet
   facet normal 8.229840e-01 -0.000000e+00 5.680646e-01
      outer loop
         vertex 1.299038e+00 -1.000000e-02 7.500000e-01
         vertex 1.299038e+00 1.000000e-02 7.500000e-01
         vertex 1.161907e+00 1.000000e-02 9.486681e-01
      endloop
   endfacet
   facet normal 8.229840e-01 0.000000e+00 5.680646e-01
      outer loop
         vertex 1.299038e+00 -1.000000e-02 7.500000e-01
         vertex 1.161907e+00 1.000000e-02 9.486681e-01
         vertex 1.161907e+00 -1.000000e-02 9.486681e-01
      endloop
   endfacet
   facet normal 7.212025e-01 -0.000000e+00 6.927243e-01
      outer loop
         vertex 1.161907e+00 -1.000000e-02 9.486681e-01
         vertex 1.161907e+00 1.000000e-02 9.486681e-01
         vertex 9.946840e-01 1.000000e-02 1.122766e+00
      endloop
   endfacet
   facet normal 7.212025e-01 0.000000e+00 6.927243e-01
      outer loop
         vertex 1.161907e+00 -1.000000e-02 9.486681e-01
         vertex 9.946840e-01 1.000000e-02 1.122766e+00
         vertex 9.946840e-01 -1.000000e-02 1.122766e+00
      endloop
   endfacet
   facet normal 6.007421e-01 -0.000000e+00 7.994429e-01
      outer loop
         vertex 9.946840e-01 -1.000000e-02 1.122766e+00
         vertex 9.946840e-01 1.000000e-02 1.122766e+00
         vertex 8.016987e-01 1.000000e-02 1.267785e+00
      endloop
   endfacet
   facet normal 6.007421e-01 0.000000e+00 7.994429e-01
      outer loop
         vertex 9.946840e-01 -1.000000e-02 1.122766e+00
         vertex 8.016987e-01 1.000000e-02 1.267785e+00
         vertex 8.016987e-01 -1.000000e-02 1.267785e+00
      endloop
   endfacet
   facet normal 4.647232e-01 -0.000000e+00 8.854560e-01
      outer loop
         vertex 8.016987e-01 -1.000000e-02 1.267785e+00
         vertex 8.016987e-01 1.000000e-02 1.267785e+00
         vertex 5.879499e-01 1.000000e-02 1.379969e+00
      endloop
   endfacet
   facet normal 4.647232e-01 0.000000e+00 8.854560e-01
      outer loop
         vertex 8.016987e-01 -1.000000e-02 1.267785e+00
         vertex 5.879499e-01 1.000000e-02 1.379969e+00
         vertex 5.879499e-01 -1.000000e-02 1.379969e+00
      endloop
   endfacet
   facet normal 3.166680e-01 -0.000000e+00 9.485365e-01
      outer loop
         vertex 5.879499e-01 -1.000000e-02 1.379969e+00
         vertex 5.879499e-01 1.000000e-02 1.379969e+00
         vertex 3.589735e-01 1.000000e-02 1.456413e+00
      endloop
   endfacet
   facet normal 3.166680e-01 0.000000e+00 9.485365e-01
      outer loop
         vertex 5.879499e-01 -1.000000e-02 1.379969e+00
         vertex 3.589735e-01 1.000000e-02 1.456413e+00
         vertex 3.589735e-01 -1.000000e-02 1.456413e+00
      endloop
   endfacet
   facet normal 1.604113e-01 -0.000000e+00 9.870503e-01
      outer loop
         vertex 3.589735e-01 -1.000000e-02 1.456413e+00
         vertex 3.589735e-01 1.000000e-02 1.456413e+00
         vertex 1.206999e-01 1.000000e-02 1.495136e+00
      endloop
   endfacet
   facet normal 1.604113e-01 0.000000e+00 9.870503e-01
      outer loop
         vertex 3.589735e-01 -1.000000e-02 1.456413e+00
         vertex 1.206999e-01 1.000000e-02 1.495136e+00
         vertex 1.206999e-01 -1.000000e-02 1.495136e+00
      endloop
   endfacet
   facet normal 4.026643e-02 -0.000000e+00 9.991890e-01
      outer loop
         vertex 1.206999e-01 -1.000000e-02 1.495136e+00
         vertex 1.206999e-01 1.000000e-02 1.495136e+00
         vertex 1.836970e-16 -1.000000e-02 1.500000e+00
      endloop
   endfacet
   facet normal 0.000000e+00 1.000000e+00 0.000000e+00
      outer loop
         vertex 1.836970e-16 1.000000e-02 1.500000e+00
         vertex 1.206999e-01 1.000000e-02 1.495136e+00
         vertex 0.000000e+00 1.000000e-02 0.000000e+00
      endloop
   endfacet
   facet normal -0.000000e+00 1.000000e+00 0.000000e+00
      outer loop
         vertex -5.879499e-01 1.000000e-02 1.379969e+00
         vertex -3.589735e-01 1.000000e-02 1.456413e+00
         vertex 0.000000e+00 1.000000e-02 0.000000e+00
      endloop
   endfacet
   facet normal 0.000000e+00 1.000000e+00 0.000000e+00
      outer loop
         vertex 0.000000e+00 1.000000e-02 0.000000e+00
         vertex -3.589735e-01 1.000000e-02 1.456413e+00
         vertex -1.206999e-01 1.000000e-02 1.495136e+00
      endloop
   endfacet
   facet normal 0.000000e+00 1.000000e+00 -0.000000e+00
      outer loop
         vertex 0.000000e+00 1.000000e-02 0.000000e+00
         vertex -1.206999e-01 1.000000e-02 1.495136e+00
         vertex 1.836970e-16 1.000000e-02 1.500000e+00
      endloop
   endfacet
   facet normal -0.000000e+00 1.000000e+00 0.000000e+00
      outer loop
         vertex -1.161907e+00 1.000000e-02 9.486681e-01
         vertex -9.946840e-01 1.000000e-02 1.122766e+00
         vertex 0.000000e+00 1.000000e-02 0.000000e+00
      endloop
   endfacet
   facet normal 0.000000e+00 1.000000e+00 0.000000e+00
      outer loop
         vertex 0.000000e+00 1.000000e-02 0.000000e+00
         vertex -9.946840e-01 1.000000e-02 1.122766e+00
         vertex -8.016987e-01 1.000000e-02 1.267785e+00
      endloop
   endfacet
   facet normal 0.000000e+00 1.000000e+00 0.000000e+00
      outer loop
         vertex 0.000000e+00 1.000000e-02 0.000000e+00
         vertex -8.016987e-01 1.000000e-02 1.267785e+00
         vertex -5.879499e-01 1.000000e-02 1.379969e+00
      endloop
   endfacet
   facet normal -0.000000e+00 1.000000e+00 0.000000e+00
      outer loop
         vertex -1.469686e+00 1.000000e-02 3.000385e-01
         vertex -1.402524e+00 1.000000e-02 5.319073e-01
         vertex 0.000000e+00 1.000000e-02 0.000000e+00
      endloop
   endfacet
   facet normal 0.000000e+00 1.000000e+00 0.000000e+00
      outer loop
         vertex 0.000000e+00 1.000000e-02 0.000000e+00
         vertex -1.402524e+00 1.000000e-02 5.319073e-01
         vertex -1.299038e+00 1.000000e-02 7.500000e-01
      endloop
   endfacet
   facet normal 0.000000e+00 1.000000e+00 0.000000e+00
      outer loop
         vertex 0.000000e+00 1.000000e-02 0.000000e+00
         vertex -1.299038e+00 1.000000e-02 7.500000e-01
         vertex -1.161907e+00 1.000000e-02 9.486681e-01
      endloop
   endfacet
   facet normal 0.000000e+00 1.000000e+00 -0.000000e+00
      outer loop
         vertex -1.440777e+00 1.000000e-02 -4.173262e-01
         vertex -1.489063e+00 1.000000e-02 -1.808050e-01
         vertex 0.000000e+00 1.000000e-02 0.000000e+00
      endloop
   endfacet
   facet normal 0.000000e+00 1.000000e+00 0.000000e+00
      outer loop
         vertex 0.000000e+00 1.000000e-02 0.000000e+00
         vertex -1.489063e+00 1.000000e-02 -1.808050e-01
         vertex -1.498783e+00 1.000000e-02 6.039891e-02
      endloop
   endfacet
   facet normal 0.000000e+00 1.000000e+00 0.000000e+00
      outer loop
         vertex 0.000000e+00 1.000000e-02 0.000000e+00
         vertex -1.498783e+00 1.000000e-02 6.039891e-02
         vertex -1.469686e+00 1.000000e-02 3.000385e-01
      endloop
   endfacet
   facet normal 0.000000e+00 1.000000e+00 -0.000000e+00
      outer loop
         vertex -1.081804e+00 1.000000e-02 -1.039087e+00
         vertex -1.234476e+00 1.000000e-02 -8.520971e-01
         vertex 0.000000e+00 1.000000e-02 0.000000e+00
      endloop
   endfacet
   facet normal 0.000000e+00 1.000000e+00 0.000000e+00
      outer loop
         vertex 0.000000e+00 1.000000e-02 0.000000e+00
         vertex -1.234476e+00 1.000000e-02 -8.520971e-01
         vertex -1.355176e+00 1.000000e-02 -6.430389e-01
      endloop
   endfacet
   facet normal 0.000000e+00 1.000000e+00 0.000000e+00
      outer loop
         vertex 0.000000e+00 1.000000e-02 0.000000e+00
         vertex -1.355176e+00 1.000000e-02 -6.430389e-01
         vertex -1.440777e+00 1.000000e-02 -4.173262e-01
      endloop
   endfacet
   facet normal 0.000000e+00 1.000000e+00 -0.000000e+00
      outer loop
         vertex -4.750020e-01 1.000000e-02 -1.422805e+00
         vertex -6.970848e-01 1.000000e-02 -1.328184e+00
         vertex 0.000000e+00 1.000000e-02 0.000000e+00
      endloop
   endfacet
   facet normal 0.000000e+00 1.000000e+00 0.000000e+00
      outer loop
         vertex 0.000000e+00 1.000000e-02 0.000000e+00
         vertex -6.970848e-01 1.000000e-02 -1.328184e+00
         vertex -9.011134e-01 1.000000e-02 -1.199164e+00
      endloop
   endfacet
   facet normal 0.000000e+00 1.000000e+00 0.000000e+00
      outer loop
         vertex 0.000000e+00 1.000000e-02 0.000000e+00
         vertex -9.011134e-01 1.000000e-02 -1.199164e+00
         vertex -1.081804e+00 1.000000e-02 -1.039087e+00
      endloop
   endfacet
   facet normal 0.000000e+00 1.000000e+00 0.000000e+00
      outer loop
         vertex 2.406169e-01 1.000000e-02 -1.480575e+00
         vertex 0.000000e+00 1.000000e-02 -1.500000e+00
         vertex 0.000000e+00 1.000000e-02 0.000000e+00
      endloop
   endfacet
   facet normal 0.000000e+00 1.000000e+00 0.000000e+00
      outer loop
         vertex 0.000000e+00 1.000000e-02 0.000000e+00
         vertex 0.000000e+00 1.000000e-02 -1.500000e+00
         vertex -2.406169e-01 1.000000e-02 -1.480575e+00
      endloop
   endfacet
   facet normal 0.000000e+00 1.000000e+00 0.000000e+00
      outer loop
         vertex 0.000000e+00 1.000000e-02 0.000000e+00
         vertex -2.406169e-01 1.000000e-02 -1.480575e+00
         vertex -4.750020e-01 1.000000e-02 -1.422805e+00
      endloop
   endfacet
   facet normal 0.000000e+00 1.000000e+00 0.000000e+00
      outer loop
         vertex 9.011134e-01 1.000000e-02 -1.199164e+00
         vertex 6.970848e-01 1.000000e-02 -1.328184e+00
         vertex 0.000000e+00 1.000000e-02 0.000000e+00
      endloop
   endfacet
   facet normal 0.000000e+00 1.000000e+00 0.000000e+00
      outer loop
         vertex 0.000000e+00 1.000000e-02 0.000000e+00
         vertex 6.970848e-01 1.000000e-02 -1.328184e+00
         vertex 4.750020e-01 1.000000e-02 -1.422805e+00
      endloop
   endfacet
   facet normal 0.000000e+00 1.000000e+00 0.000000e+00
      outer loop
         vertex 0.000000e+00 1.000000e-02 0.000000e+00
         vertex 4.750020e-01 1.000000e-02 -1.422805e+00
         vertex 2.406169e-01 1.000000e-02 -1.480575e+00
      endloop
   endfacet
   facet normal 0.000000e+00 1.000000e+00 0.000000e+00
      outer loop
         vertex 1.355176e+00 1.000000e-02 -6.430389e-01
         vertex 1.234476e+00 1.000000e-02 -8.520971e-01
         vertex 0.000000e+00 1.000000e-02 0.000000e+00
      endloop
   endfacet
   facet normal 0.000000e+00 1.000000e+00 0.000000e+00
      outer loop
         vertex 0.000000e+00 1.000000e-02 0.000000e+00
         vertex 1.234476e+00 1.000000e-02 -8.520971e-01
         vertex 1.081804e+00 1.000000e-02 -1.039087e+00
      endloop
   endfacet
   facet normal 0.000000e+00 1.000000e+00 0.000000e+00
      outer loop
         vertex 0.000000e+00 1.000000e-02 0.000000e+00
         vertex 1.081804e+00 1.000000e-02 -1.039087e+00
         vertex 9.011134e-01 1.000000e-02 -1.199164e+00
      endloop
   endfacet
   facet normal 0.000000e+00 1.000000e+00 0.000000e+00
      outer loop
         vertex 1.498783e+00 1.000000e-02 6.039891e-02
         vertex 1.489063e+00 1.000000e-02 -1.808050e-01
         vertex 0.000000e+00 1.000000e-02 0.000000e+00
      endloop
   endfacet
   facet normal 0.000000e+00 1.000000e+00 0.000000e+00
      outer loop
         vertex 0.000000e+00 1.000000e-02 0.000000e+00
         vertex 1.489063e+00 1.000000e-02 -1.808050e-01
         vertex 1.440777e+00 1.000000e-02 -4.173262e-01
      endloop
   endfacet
   facet normal 0.000000e+00 1.000000e+00 0.000000e+00
      outer loop
         vertex 0.000000e+00 1.000000e-02 0.000000e+00
         vertex 1.440777e+00 1.000000e-02 -4.173262e-01
         vertex 1.355176e+00 1.000000e-02 -6.430389e-01
      endloop
   endfacet
   facet normal 0.000000e+00 1.000000e+00 0.000000e+00
      outer loop
         vertex 1.299038e+00 1.000000e-02 7.500000e-01
         vertex 1.402524e+00 1.000000e-02 5.319073e-01
         vertex 0.000000e+00 1.000000e-02 0.000000e+00
      endloop
   endfacet
   facet normal 0.000000e+00 1.000000e+00 0.000000e+00
      outer loop
         vertex 0.000000e+00 1.000000e-02 0.000000e+00
         vertex 1.402524e+00 1.000000e-02 5.319073e-01
         vertex 1.469686e+00 1.000000e-02 3.000385e-01
      endloop
   endfacet
   facet normal 0.000000e+00 1.000000e+00 0.000000e+00
      outer loop
         vertex 0.000000e+00 1.000000e-02 0.000000e+00
         vertex 1.469686e+00 1.000000e-02 3.000385e-01
         vertex 1.498783e+00 1.000000e-02 6.039891e-02
      endloop
   endfacet
   facet normal 0.000000e+00 1.000000e+00 0.000000e+00
      outer loop
         vertex 8.016987e-01 1.000000e-02 1.267785e+00
         vertex 9.946840e-01 1.000000e-02 1.122766e+00
         vertex 0.000000e+00 1.000000e-02 0.000000e+00
      endloop
   endfacet
   facet normal 0.000000e+00 1.000000e+00 0.000000e+00
      outer loop
         vertex 0.000000e+00 1.000000e-02 0.000000e+00
         vertex 9.946840e-01 1.000000e-02 1.122766e+00
         vertex 1.161907e+00 1.000000e-02 9.486681e-01
      endloop
   endfacet
   facet normal 0.000000e+00 1.000000e+00 0.000000e+00
      outer loop
         vertex 0.000000e+00 1.000000e-02 0.000000e+00
         vertex 1.161907e+00 1.000000e-02 9.486681e-01
         vertex 1.299038e+00 1.000000e-02 7.500000e-01
      endloop
   endfacet
   facet normal 0.000000e+00 1.000000e+00 0.000000e+00
      outer loop
         vertex 1.206999e-01 1.000000e-02 1.495136e+00
         vertex 3.589735e-01 1.000000e-02 1.456413e+00
         vertex 0.000000e+00 1.000000e-02 0.000000e+00
      endloop
   endfacet
   facet normal 0.000000e+00 1.000000e+00 0.000000e+00
      outer loop
         vertex 0.000000e+00 1.000000e-02 0.000000e+00
         vertex 3.589735e-01 1.000000e-02 1.456413e+00
         vertex 5.879499e-01 1.000000e-02 1.379969e+00
      endloop
   endfacet
   facet normal 0.000000e+00 1.000000e+00 0.000000e+00
      outer loop
         vertex 0.000000e+00 1.000000e-02 0.000000e+00
         vertex 5.879499e-01 1.000000e-02 1.379969e+00
         vertex 8.016987e-01 1.000000e-02 1.267785e+00
      endloop
   endfacet
   facet normal 0.000000e+00 -1.000000e+00 0.000000e+00
      outer loop
         vertex 5.510911e-16 -1.000000e-02 1.500000e+00
         vertex -1.206999e-01 -1.000000e-02 1.495136e+00
         vertex 0.000000e+00 -1.000000e-02 0.000000e+00
      endloop
   endfacet
   facet normal -0.000000e+00 -1.000000e+00 0.000000e+00
      outer loop
         vertex 5.879499e-01 -1.000000e-02 1.379969e+00
         vertex 3.589735e-01 -1.000000e-02 1.456413e+00
         vertex 0.000000e+00 -1.000000e-02 0.000000e+00
      endloop
   endfacet
   facet normal 0.000000e+00 -1.000000e+00 0.000000e+00
      outer loop
         vertex 0.000000e+00 -1.000000e-02 0.000000e+00
         vertex 3.589735e-01 -1.000000e-02 1.456413e+00
         vertex 1.206999e-01 -1.000000e-02 1.495136e+00
      endloop
   endfacet
   facet normal 0.000000e+00 -1.000000e+00 0.000000e+00
      outer loop
         vertex 0.000000e+00 -1.000000e-02 0.000000e+00
         vertex 1.206999e-01 -1.000000e-02 1.495136e+00
         vertex 5.510911e-16 -1.000000e-02 1.500000e+00
      endloop
   endfacet
   facet normal -0.000000e+00 -1.000000e+00 0.000000e+00
      outer loop
         vertex 1.161907e+00 -1.000000e-02 9.486681e-01
         vertex 9.946840e-01 -1.000000e-02 1.122766e+00
         vertex 0.000000e+00 -1.000000e-02 0.000000e+00
      endloop
   endfacet
   facet normal 0.000000e+00 -1.000000e+00 0.000000e+00
      outer loop
         vertex 0.000000e+00 -1.000000e-02 0.000000e+00
         vertex 9.946840e-01 -1.000000e-02 1.122766e+00
         vertex 8.016987e-01 -1.000000e-02 1.267785e+00
      endloop
   endfacet
   facet normal 0.000000e+00 -1.000000e+00 0.000000e+00
      outer loop
         vertex 0.000000e+00 -1.000000e-02 0.000000e+00
         vertex 8.016987e-01 -1.000000e-02 1.267785e+00
         vertex 5.879499e-01 -1.000000e-02 1.379969e+00
      endloop
   endfacet
   facet normal -0.000000e+00 -1.000000e+00 0.000000e+00
      outer loop
         vertex 1.469686e+00 -1.000000e-02 3.000385e-01
         vertex 1.402524e+00 -1.000000e-02 5.319073e-01
         vertex 0.000000e+00 -1.000000e-02 0.000000e+00
      endloop
   endfacet
   facet normal 0.000000e+00 -1.000000e+00 0.000000e+00
      outer loop
         vertex 0.000000e+00 -1.000000e-02 0.000000e+00
         vertex 1.402524e+00 -1.000000e-02 5.319073e-01
         vertex 1.299038e+00 -1.000000e-02 7.500000e-01
      endloop
   endfacet
   facet normal 0.000000e+00 -1.000000e+00 0.000000e+00
      outer loop
         vertex 0.000000e+00 -1.000000e-02 0.000000e+00
         vertex 1.299038e+00 -1.000000e-02 7.500000e-01
         vertex 1.161907e+00 -1.000000e-02 9.486681e-01
      endloop
   endfacet
   facet normal 0.000000e+00 -1.000000e+00 0.000000e+00
      outer loop
         vertex 1.440777e+00 -1.000000e-02 -4.173262e-01
         vertex 1.489063e+00 -1.000000e-02 -1.808050e-01
         vertex 0.000000e+00 -1.000000e-02 0.000000e+00
      endloop
   endfacet
   facet normal 0.000000e+00 -1.000000e+00 0.000000e+00
      outer loop
         vertex 0.000000e+00 -1.000000e-02 0.000000e+00
         vertex 1.489063e+00 -1.000000e-02 -1.808050e-01
         vertex 1.498783e+00 -1.000000e-02 6.039891e-02
      endloop
   endfacet
   facet normal 0.000000e+00 -1.000000e+00 0.000000e+00
      outer loop
         vertex 0.000000e+00 -1.000000e-02 0.000000e+00
         vertex 1.498783e+00 -1.000000e-02 6.039891e-02
         vertex 1.469686e+00 -1.000000e-02 3.000385e-01
      endloop
   endfacet
   facet normal 0.000000e+00 -1.000000e+00 0.000000e+00
      outer loop
         vertex 1.081804e+00 -1.000000e-02 -1.039087e+00
         vertex 1.234476e+00 -1.000000e-02 -8.520971e-01
         vertex 0.000000e+00 -1.000000e-02 0.000000e+00
      endloop
   endfacet
   facet normal 0.000000e+00 -1.000000e+00 0.000000e+00
      outer loop
         vertex 0.000000e+00 -1.000000e-02 0.000000e+00
         vertex 1.234476e+00 -1.000000e-02 -8.520971e-01
         vertex 1.355176e+00 -1.000000e-02 -6.430389e-01
      endloop
   endfacet
   facet normal 0.000000e+00 -1.000000e+00 0.000000e+00
      outer loop
         vertex 0.000000e+00 -1.000000e-02 0.000000e+00
         vertex 1.355176e+00 -1.000000e-02 -6.430389e-01
         vertex 1.440777e+00 -1.000000e-02 -4.173262e-01
      endloop
   endfacet
   facet normal 0.000000e+00 -1.000000e+00 0.000000e+00
      outer loop
         vertex 4.750020e-01 -1.000000e-02 -1.422805e+00
         vertex 6.970848e-01 -1.000000e-02 -1.328184e+00
         vertex 0.000000e+00 -1.000000e-02 0.000000e+00
      endloop
   endfacet
   facet normal 0.000000e+00 -1.000000e+00 0.000000e+00
      outer loop
         vertex 0.000000e+00 -1.000000e-02 0.000000e+00
         vertex 6.970848e-01 -1.000000e-02 -1.328184e+00
         vertex 9.011134e-01 -1.000000e-02 -1.199164e+00
      endloop
   endfacet
   facet normal 0.000000e+00 -1.000000e+00 0.000000e+00
      outer loop
         vertex 0.000000e+00 -1.000000e-02 0.000000e+00
         vertex 9.011134e-01 -1.000000e-02 -1.199164e+00
         vertex 1.081804e+00 -1.000000e-02 -1.039087e+00
      endloop
   endfacet
   facet normal 0.000000e+00 -1.000000e+00 0.000000e+00
      outer loop
         vertex -2.406169e-01 -1.000000e-02 -1.480575e+00
         vertex 0.000000e+00 -1.000000e-02 -1.500000e+00
         vertex 0.000000e+00 -1.000000e-02 0.000000e+00
      endloop
   endfacet
   facet normal 0.000000e+00 -1.000000e+00 0.000000e+00
      outer loop
         vertex 0.000000e+00 -1.000000e-02 0.000000e+00
         vertex 0.000000e+00 -1.000000e-02 -1.500000e+00
         vertex 2.406169e-01 -1.000000e-02 -1.480575e+00
      endloop
   endfacet
   facet normal 0.000000e+00 -1.000000e+00 0.000000e+00
      outer loop
         vertex 0.000000e+00 -1.000000e-02 0.000000e+00
         vertex 2.406169e-01 -1.000000e-02 -1.480575e+00
         vertex 4.750020e-01 -1.000000e-02 -1.422805e+00
      endloop
   endfacet
   facet normal 0.000000e+00 -1.000000e+00 0.000000e+00
      outer loop
         vertex -9.011134e-01 -1.000000e-02 -1.199164e+00
         vertex -6.970848e-01 -1.000000e-02 -1.328184e+00
         vertex 0.000000e+00 -1.000000e-02 0.000000e+00
      endloop
   endfacet
   facet normal 0.000000e+00 -1.000000e+00 0.000000e+00
      outer loop
         vertex 0.000000e+00 -1.000000e-02 0.000000e+00
         vertex -6.970848e-01 -1.000000e-02 -1.328184e+00
         vertex -4.750020e-01 -1.000000e-02 -1.422805e+00
      endloop
   endfacet
   facet normal 0.000000e+00 -1.000000e+00 0.000000e+00
      outer loop
         vertex 0.000000e+00 -1.000000e-02 0.000000e+00
         vertex -4.750020e-01 -1.000000e-02 -1.422805e+00
         vertex -2.406169e-01 -1.000000e-02 -1.480575e+00
      endloop
   endfacet
   facet normal 0.000000e+00 -1.000000e+00 0.000000e+00
      outer loop
         vertex -1.355176e+00 -1.000000e-02 -6.430389e-01
         vertex -1.234476e+00 -1.000000e-02 -8.520971e-01
         vertex 0.000000e+00 -1.000000e-02 0.000000e+00
      endloop
   endfacet
   facet normal 0.000000e+00 -1.000000e+00 0.000000e+00
      outer loop
         vertex 0.000000e+00 -1.000000e-02 0.000000e+00
         vertex -1.234476e+00 -1.000000e-02 -8.520971e-01
         vertex -1.081804e+00 -1.000000e-02 -1.039087e+00
      endloop
   endfacet
   facet normal 0.000000e+00 -1.000000e+00 0.000000e+00
      outer loop
         vertex 0.000000e+00 -1.000000e-02 0.000000e+00
         vertex -1.081804e+00 -1.000000e-02 -1.039087e+00
         vertex -9.011134e-01 -1.000000e-02 -1.199164e+00
      endloop
   endfacet
   facet normal 0.000000e+00 -1.000000e+00 0.000000e+00
      outer loop
         vertex -1.498783e+00 -1.000000e-02 6.039891e-02
         vertex -1.489063e+00 -1.000000e-02 -1.808050e-01
         vertex 0.000000e+00 -1.000000e-02 0.000000e+00
      endloop
   endfacet
   facet normal 0.000000e+00 -1.000000e+00 0.000000e+00
      outer loop
         vertex 0.000000e+00 -1.000000e-02 0.000000e+00
         vertex -1.489063e+00 -1.000000e-02 -1.808050e-01
         vertex -1.440777e+00 -1.000000e-02 -4.173262e-01
      endloop
   endfacet
   facet normal 0.000000e+00 -1.000000e+00 0.000000e+00
      outer loop
         vertex 0.000000e+00 -1.000000e-02 0.000000e+00
         vertex -1.440777e+00 -1.000000e-02 -4.173262e-01
         vertex -1.355176e+00 -1.000000e-02 -6.430389e-01
      endloop
   endfacet
   facet normal 0.000000e+00 -1.000000e+00 -0.000000e+00
      outer loop
         vertex -1.299038e+00 -1.000000e-02 7.500000e-01
         vertex -1.402524e+00 -1.000000e-02 5.319073e-01
         vertex 0.000000e+00 -1.000000e-02 0.000000e+00
      endloop
   endfacet
   facet normal 0.000000e+00 -1.000000e+00 0.000000e+00
      outer loop
         vertex 0.000000e+00 -1.000000e-02 0.000000e+00
         vertex -1.402524e+00 -1.000000e-02 5.319073e-01
         vertex -1.469686e+00 -1.000000e-02 3.000385e-01
      endloop
   endfacet
   facet normal 0.000000e+00 -1.000000e+00 0.000000e+00
      outer loop
         vertex 0.000000e+00 -1.000000e-02 0.000000e+00
         vertex -1.469686e+00 -1.000000e-02 3.000385e-01
         vertex -1.498783e+00 -1.000000e-02 6.039891e-02
      endloop
   endfacet
   facet normal 0.000000e+00 -1.000000e+00 -0.000000e+00
      outer loop
         vertex -8.016987e-01 -1.000000e-02 1.267785e+00
         vertex -9.946840e-01 -1.000000e-02 1.122766e+00
         vertex 0.000000e+00 -1.000000e-02 0.000000e+00
      endloop
   endfacet
   facet normal 0.000000e+00 -1.000000e+00 0.000000e+00
      outer loop
         vertex 0.000000e+00 -1.000000e-02 0.000000e+00
         vertex -9.946840e-01 -1.000000e-02 1.122766e+00
         vertex -1.161907e+00 -1.000000e-02 9.486681e-01
      endloop
   endfacet
   facet normal 0.000000e+00 -1.000000e+00 0.000000e+00
      outer loop
         vertex 0.000000e+00 -1.000000e-02 0.000000e+00
         vertex -1.161907e+00 -1.000000e-02 9.486681e-01
         vertex -1.299038e+00 -1.000000e-02 7.500000e-01
      endloop
   endfacet
   facet normal 0.000000e+00 -1.000000e+00 -0.000000e+00
      outer loop
         vertex -1.206999e-01 -1.000000e-02 1.495136e+00
         vertex -3.589735e-01 -1.000000e-02 1.456413e+00
         vertex 0.000000e+00 -1.000000e-02 0.000000e+00
      endloop
   endfacet
   facet normal 0.000000e+00 -1.000000e+00 0.000000e+00
      outer loop
         vertex 0.000000e+00 -1.000000e-02 0.000000e+00
         vertex -3.589735e-01 -1.000000e-02 1.456413e+00
         vertex -5.879499e-01 -1.000000e-02 1.379969e+00
      endloop
   endfacet
   facet normal 0.000000e+00 -1.000000e+00 0.000000e+00
      outer loop
         vertex 0.000000e+00 -1.000000e-02 0.000000e+00
         vertex -5.879499e-01 -1.000000e-02 1.379969e+00
         vertex -8.016987e-01 -1.000000e-02 1.267785e+00
      endloop
   endfacet
endsolid